<mxfile host="app.diagrams.net" modified="2020-05-19T00:13:21.465Z" agent="5.0 (Macintosh; Intel Mac OS X 10_15_4) AppleWebKit/537.36 (KHTML, like Gecko) Chrome/81.0.4044.138 Safari/537.36" etag="jD5ZBhgwu2gTSIj4Rp7k" version="13.1.2" type="github">
  <diagram id="jS2zcpY-j4LZxYMWNgim" name="Page-1">
    <mxGraphModel dx="946" dy="481" grid="1" gridSize="10" guides="1" tooltips="1" connect="1" arrows="1" fold="1" page="1" pageScale="1" pageWidth="827" pageHeight="1169" math="0" shadow="0">
      <root>
        <mxCell id="0" />
        <mxCell id="1" parent="0" />
        <mxCell id="SreWT3OCgNeXL5uDAjm2-1" style="edgeStyle=orthogonalEdgeStyle;rounded=0;orthogonalLoop=1;jettySize=auto;html=1;entryX=0.5;entryY=1;entryDx=0;entryDy=0;endArrow=none;endFill=0;" edge="1" parent="1" source="SreWT3OCgNeXL5uDAjm2-24" target="SreWT3OCgNeXL5uDAjm2-31">
          <mxGeometry relative="1" as="geometry" />
        </mxCell>
        <mxCell id="SreWT3OCgNeXL5uDAjm2-2" value="" style="outlineConnect=0;fontColor=#232F3E;gradientColor=none;fillColor=#232F3E;strokeColor=none;dashed=0;verticalLabelPosition=bottom;verticalAlign=top;align=center;html=1;fontSize=12;fontStyle=0;aspect=fixed;pointerEvents=1;shape=mxgraph.aws4.user;" vertex="1" parent="1">
          <mxGeometry x="40" y="30" width="40" height="40" as="geometry" />
        </mxCell>
        <mxCell id="SreWT3OCgNeXL5uDAjm2-3" style="edgeStyle=orthogonalEdgeStyle;rounded=0;orthogonalLoop=1;jettySize=auto;html=1;exitX=0;exitY=0.5;exitDx=0;exitDy=0;entryX=1;entryY=0.5;entryDx=0;entryDy=0;endArrow=none;endFill=0;" edge="1" parent="1" source="SreWT3OCgNeXL5uDAjm2-4" target="SreWT3OCgNeXL5uDAjm2-31">
          <mxGeometry relative="1" as="geometry" />
        </mxCell>
        <mxCell id="SreWT3OCgNeXL5uDAjm2-4" value="게임시작&lt;br&gt;/ 게임종료" style="rounded=0;whiteSpace=wrap;html=1;fillColor=#d5e8d4;strokeColor=#82b366;" vertex="1" parent="1">
          <mxGeometry x="340" y="70" width="80" height="40" as="geometry" />
        </mxCell>
        <mxCell id="SreWT3OCgNeXL5uDAjm2-5" value="초대코드 생성" style="rounded=0;whiteSpace=wrap;html=1;" vertex="1" parent="1">
          <mxGeometry x="340" y="190" width="80" height="40" as="geometry" />
        </mxCell>
        <mxCell id="SreWT3OCgNeXL5uDAjm2-14" value="자랑게시판" style="rounded=0;whiteSpace=wrap;html=1;fillColor=#fff2cc;strokeColor=#d6b656;" vertex="1" parent="1">
          <mxGeometry x="340" y="130" width="80" height="40" as="geometry" />
        </mxCell>
        <mxCell id="SreWT3OCgNeXL5uDAjm2-15" value="" style="outlineConnect=0;fontColor=#232F3E;gradientColor=none;fillColor=#232F3E;strokeColor=none;dashed=0;verticalLabelPosition=bottom;verticalAlign=top;align=center;html=1;fontSize=12;fontStyle=0;aspect=fixed;pointerEvents=1;shape=mxgraph.aws4.user;" vertex="1" parent="1">
          <mxGeometry x="40" y="80" width="40" height="40" as="geometry" />
        </mxCell>
        <mxCell id="SreWT3OCgNeXL5uDAjm2-16" value="" style="outlineConnect=0;fontColor=#232F3E;gradientColor=none;fillColor=#232F3E;strokeColor=none;dashed=0;verticalLabelPosition=bottom;verticalAlign=top;align=center;html=1;fontSize=12;fontStyle=0;aspect=fixed;pointerEvents=1;shape=mxgraph.aws4.user;" vertex="1" parent="1">
          <mxGeometry x="40" y="130" width="40" height="40" as="geometry" />
        </mxCell>
        <mxCell id="SreWT3OCgNeXL5uDAjm2-17" style="edgeStyle=orthogonalEdgeStyle;rounded=0;orthogonalLoop=1;jettySize=auto;html=1;exitX=0;exitY=0.5;exitDx=0;exitDy=0;endArrow=none;endFill=0;" edge="1" parent="1" source="SreWT3OCgNeXL5uDAjm2-29" target="SreWT3OCgNeXL5uDAjm2-2">
          <mxGeometry relative="1" as="geometry">
            <Array as="points">
              <mxPoint x="130" y="90" />
              <mxPoint x="130" y="50" />
            </Array>
          </mxGeometry>
        </mxCell>
        <mxCell id="SreWT3OCgNeXL5uDAjm2-18" value="" style="edgeStyle=orthogonalEdgeStyle;rounded=0;orthogonalLoop=1;jettySize=auto;html=1;endArrow=none;endFill=0;" edge="1" parent="1" source="SreWT3OCgNeXL5uDAjm2-31" target="SreWT3OCgNeXL5uDAjm2-15">
          <mxGeometry relative="1" as="geometry">
            <Array as="points">
              <mxPoint x="120" y="130" />
              <mxPoint x="120" y="100" />
            </Array>
          </mxGeometry>
        </mxCell>
        <mxCell id="SreWT3OCgNeXL5uDAjm2-19" style="edgeStyle=orthogonalEdgeStyle;rounded=0;orthogonalLoop=1;jettySize=auto;html=1;exitX=0;exitY=0.5;exitDx=0;exitDy=0;endArrow=none;endFill=0;" edge="1" parent="1" source="SreWT3OCgNeXL5uDAjm2-31" target="SreWT3OCgNeXL5uDAjm2-16">
          <mxGeometry relative="1" as="geometry">
            <Array as="points">
              <mxPoint x="160" y="130" />
              <mxPoint x="120" y="130" />
              <mxPoint x="120" y="150" />
            </Array>
          </mxGeometry>
        </mxCell>
        <mxCell id="SreWT3OCgNeXL5uDAjm2-20" style="edgeStyle=orthogonalEdgeStyle;rounded=0;orthogonalLoop=1;jettySize=auto;html=1;exitX=1;exitY=0.5;exitDx=0;exitDy=0;entryX=0;entryY=0.5;entryDx=0;entryDy=0;endArrow=none;endFill=0;" edge="1" parent="1" source="SreWT3OCgNeXL5uDAjm2-31" target="SreWT3OCgNeXL5uDAjm2-5">
          <mxGeometry relative="1" as="geometry" />
        </mxCell>
        <mxCell id="SreWT3OCgNeXL5uDAjm2-21" style="edgeStyle=orthogonalEdgeStyle;rounded=0;orthogonalLoop=1;jettySize=auto;html=1;exitX=1;exitY=0.5;exitDx=0;exitDy=0;entryX=0;entryY=0.5;entryDx=0;entryDy=0;endArrow=none;endFill=0;" edge="1" parent="1" source="SreWT3OCgNeXL5uDAjm2-31" target="SreWT3OCgNeXL5uDAjm2-14">
          <mxGeometry relative="1" as="geometry" />
        </mxCell>
        <mxCell id="SreWT3OCgNeXL5uDAjm2-22" value="" style="shape=link;html=1;endArrow=none;endFill=0;" edge="1" parent="1">
          <mxGeometry width="50" height="50" relative="1" as="geometry">
            <mxPoint x="260" y="310" as="sourcePoint" />
            <mxPoint x="260" y="20" as="targetPoint" />
          </mxGeometry>
        </mxCell>
        <mxCell id="SreWT3OCgNeXL5uDAjm2-23" value="인터셉터" style="text;html=1;align=center;verticalAlign=middle;resizable=0;points=[];autosize=1;" vertex="1" parent="1">
          <mxGeometry x="230" y="320" width="60" height="20" as="geometry" />
        </mxCell>
        <mxCell id="SreWT3OCgNeXL5uDAjm2-24" value="" style="outlineConnect=0;fontColor=#232F3E;gradientColor=none;fillColor=#232F3E;strokeColor=none;dashed=0;verticalLabelPosition=bottom;verticalAlign=top;align=center;html=1;fontSize=12;fontStyle=0;aspect=fixed;pointerEvents=1;shape=mxgraph.aws4.user;" vertex="1" parent="1">
          <mxGeometry x="40" y="200" width="40" height="40" as="geometry" />
        </mxCell>
        <mxCell id="SreWT3OCgNeXL5uDAjm2-29" value="그룹" style="rounded=0;whiteSpace=wrap;html=1;" vertex="1" parent="1">
          <mxGeometry x="140" y="70" width="80" height="40" as="geometry" />
        </mxCell>
        <mxCell id="SreWT3OCgNeXL5uDAjm2-30" value="그룹" style="rounded=0;whiteSpace=wrap;html=1;" vertex="1" parent="1">
          <mxGeometry x="150" y="80" width="80" height="40" as="geometry" />
        </mxCell>
        <mxCell id="SreWT3OCgNeXL5uDAjm2-31" value="게임" style="rounded=0;whiteSpace=wrap;html=1;" vertex="1" parent="1">
          <mxGeometry x="160" y="90" width="80" height="40" as="geometry" />
        </mxCell>
        <mxCell id="SreWT3OCgNeXL5uDAjm2-32" value="초대코드" style="ellipse;whiteSpace=wrap;html=1;fillColor=#FFFFFF;" vertex="1" parent="1">
          <mxGeometry x="160" y="200" width="80" height="40" as="geometry" />
        </mxCell>
        <mxCell id="SreWT3OCgNeXL5uDAjm2-33" value="게임 히스토리" style="rounded=0;whiteSpace=wrap;html=1;" vertex="1" parent="1">
          <mxGeometry x="160" y="260" width="80" height="40" as="geometry" />
        </mxCell>
      </root>
    </mxGraphModel>
  </diagram>
</mxfile>
